# xmcd CD database file
#
# Track frame offsets:
#	150
#	17189
#	35819
#	56235
#	70463
#	89177
#	107263
#	126216
#	142935
#	158478
#	171539
#	186037
#
# Disc length: 2706 seconds
#
# Revision: 0
# Processed by: cddbd v1.4PL0 Copyright (c) Steve Scherf et al.
# Submitted via: CDex 1.50
#
DISCID=ad0a900c
DTITLE=Noel Coutts and Friends - South Pacific Saturday Nights
DYEAR=1999
DGENRE=Blues
TTITLE0=Why
TTITLE1=Badcat Boogie
TTITLE2=Barfly
TTITLE3=Only A Man
TTITLE4=Tui In The Rain
TTITLE5=Devil And The Taniwha
TTITLE6=Is He Your Lover
TTITLE7=South Pacific Saturday Night
TTITLE8=Stonefish
TTITLE9=Orepuki Gumbo
TTITLE10=Lessons From The School Of Life
TTITLE11=Tattoo
EXTD=YEAR: 1999
EXTT0=
EXTT1=
EXTT2=
EXTT3=
EXTT4=
EXTT5=
EXTT6=
EXTT7=
EXTT8=
EXTT9=
EXTT10=
EXTT11=
PLAYORDER=
